<svg width="50" height="50" viewBox="0 0 50 50" fill="none" xmlns="http://www.w3.org/2000/svg">
<path d="M20.8332 35.3124H12.9373C5.9165 35.3124 4.1665 33.5624 4.1665 26.5416V14.0416C4.1665 7.02075 5.9165 5.27075 12.9373 5.27075H34.8748C41.8957 5.27075 43.6457 7.02075 43.6457 14.0416" stroke="black" stroke-width="4" stroke-linecap="round" stroke-linejoin="round"/>
<path d="M20.8335 44.7292V35.3125" stroke="black" stroke-width="4" stroke-linecap="round" stroke-linejoin="round"/>
<path d="M4.1665 26.9792H20.8332" stroke="black" stroke-width="4" stroke-linecap="round" stroke-linejoin="round"/>
<path d="M14.0415 44.7292H20.8332" stroke="black" stroke-width="4" stroke-linecap="round" stroke-linejoin="round"/>
<path d="M45.8332 26.6667V38.5625C45.8332 43.5 44.604 44.7292 39.6665 44.7292H32.2707C27.3332 44.7292 26.104 43.5 26.104 38.5625V26.6667C26.104 21.7292 27.3332 20.5 32.2707 20.5H39.6665C44.604 20.5 45.8332 21.7292 45.8332 26.6667Z" stroke="black" stroke-width="3.5" stroke-linecap="round" stroke-linejoin="round"/>
<path d="M35.9262 38.0209H35.9449" stroke="black" stroke-width="4" stroke-linecap="round" stroke-linejoin="round"/>
</svg>
