<svg width="53" height="53" viewBox="0 0 53 53" fill="none" xmlns="http://www.w3.org/2000/svg">
<path d="M29.6139 26.5L39.1097 17.0263C39.5255 16.6104 39.7591 16.0464 39.7591 15.4583C39.7591 14.8703 39.5255 14.3063 39.1097 13.8904C38.6938 13.4746 38.1299 13.241 37.5418 13.241C36.9537 13.241 36.3897 13.4746 35.9739 13.8904L26.5001 23.3863L17.0264 13.8904C16.6105 13.4746 16.0465 13.241 15.4584 13.241C14.8704 13.241 14.3064 13.4746 13.8905 13.8904C13.4747 14.3063 13.2411 14.8703 13.2411 15.4583C13.2411 16.0464 13.4747 16.6104 13.8905 17.0263L23.3864 26.5L13.8905 35.9738C13.6835 36.179 13.5193 36.4233 13.4071 36.6924C13.295 36.9615 13.2373 37.2501 13.2373 37.5417C13.2373 37.8332 13.295 38.1218 13.4071 38.3909C13.5193 38.66 13.6835 38.9043 13.8905 39.1096C14.0958 39.3166 14.3401 39.4809 14.6092 39.593C14.8783 39.7051 15.1669 39.7628 15.4584 39.7628C15.75 39.7628 16.0386 39.7051 16.3077 39.593C16.5768 39.4809 16.8211 39.3166 17.0264 39.1096L26.5001 29.6138L35.9739 39.1096C36.1792 39.3166 36.4234 39.4809 36.6925 39.593C36.9616 39.7051 37.2502 39.7628 37.5418 39.7628C37.8333 39.7628 38.1219 39.7051 38.391 39.593C38.6602 39.4809 38.9044 39.3166 39.1097 39.1096C39.3167 38.9043 39.481 38.66 39.5931 38.3909C39.7052 38.1218 39.7629 37.8332 39.7629 37.5417C39.7629 37.2501 39.7052 36.9615 39.5931 36.6924C39.481 36.4233 39.3167 36.179 39.1097 35.9738L29.6139 26.5Z" fill="#141B29"/>
</svg>
