<svg width="50" height="50" viewBox="0 0 50 50" fill="none" xmlns="http://www.w3.org/2000/svg">
<path d="M18.75 27.0834C17.375 27.7709 16.2292 28.7917 15.375 30.0625C14.8958 30.7917 14.8958 31.7084 15.375 32.4375C16.2292 33.7084 17.375 34.7292 18.75 35.4167" stroke="black" stroke-width="4" stroke-linecap="round" stroke-linejoin="round"/>
<path d="M31.6875 27.0834C33.0625 27.7709 34.2083 28.7917 35.0625 30.0625C35.5417 30.7917 35.5417 31.7084 35.0625 32.4375C34.2083 33.7084 33.0625 34.7292 31.6875 35.4167" stroke="black" stroke-width="4" stroke-linecap="round" stroke-linejoin="round"/>
<path d="M18.7498 45.8334H31.2498C41.6665 45.8334 45.8332 41.6668 45.8332 31.2501V18.7501C45.8332 8.33342 41.6665 4.16675 31.2498 4.16675H18.7498C8.33317 4.16675 4.1665 8.33342 4.1665 18.7501V31.2501C4.1665 41.6668 8.33317 45.8334 18.7498 45.8334Z" stroke="black" stroke-width="4" stroke-linecap="round" stroke-linejoin="round"/>
<path d="M4.646 16.6876L44.6877 16.6667" stroke="black" stroke-width="4" stroke-linecap="round" stroke-linejoin="round"/>
</svg>
