<svg width="36" height="36" viewBox="0 0 36 36" fill="none" xmlns="http://www.w3.org/2000/svg">
<path d="M35.4645 7.40562C34.212 7.96062 32.8665 8.33562 31.452 8.50512C32.9115 7.6318 34.0034 6.25731 34.524 4.63812C33.1528 5.4526 31.652 6.02591 30.087 6.33312C29.0346 5.20941 27.6406 4.4646 26.1215 4.21433C24.6024 3.96405 23.0432 4.2223 21.6859 4.94899C20.3286 5.67569 19.2492 6.83016 18.6152 8.23317C17.9813 9.63618 17.8283 11.2092 18.18 12.7081C15.4015 12.5686 12.6835 11.8464 10.2022 10.5885C7.72085 9.33051 5.53178 7.56486 3.77702 5.40612C3.17702 6.44112 2.83202 7.64112 2.83202 8.91912C2.83135 10.0696 3.11467 11.2025 3.65684 12.2172C4.199 13.2319 4.98326 14.0972 5.94002 14.7361C4.83043 14.7008 3.74533 14.401 2.77502 13.8616V13.9516C2.77491 15.5652 3.33307 17.1292 4.35479 18.3781C5.37652 19.627 6.79887 20.484 8.38052 20.8036C7.35119 21.0822 6.27202 21.1232 5.22452 20.9236C5.67076 22.312 6.54001 23.5262 7.71057 24.396C8.88113 25.2659 10.2944 25.7479 11.7525 25.7746C9.27727 27.7177 6.22035 28.7717 3.07352 28.7671C2.51609 28.7673 1.95913 28.7347 1.40552 28.6696C4.59973 30.7234 8.31803 31.8133 12.1155 31.8091C24.9705 31.8091 31.998 21.1621 31.998 11.9281C31.998 11.6281 31.9905 11.3251 31.977 11.0251C33.344 10.0366 34.5239 8.81246 35.4615 7.41012L35.4645 7.40562V7.40562Z" fill="black"/>
</svg>
